<mxfile host="app.diagrams.net" modified="2023-02-19T23:52:59.054Z" agent="5.0 (X11; Linux x86_64) AppleWebKit/537.36 (KHTML, like Gecko) Chrome/110.0.0.0 Safari/537.36" etag="i2BCsmiM8bXRj6OCLPjm" version="20.8.20" type="github">
  <diagram id="C5RBs43oDa-KdzZeNtuy" name="Page-1">
    <mxGraphModel dx="2049" dy="1144" grid="1" gridSize="10" guides="1" tooltips="1" connect="1" arrows="1" fold="1" page="1" pageScale="1" pageWidth="1600" pageHeight="900" math="0" shadow="0">
      <root>
        <mxCell id="WIyWlLk6GJQsqaUBKTNV-0" />
        <mxCell id="WIyWlLk6GJQsqaUBKTNV-1" parent="WIyWlLk6GJQsqaUBKTNV-0" />
        <mxCell id="jbQOFpMAkAd9IMdo7Waa-22" value="" style="edgeStyle=orthogonalEdgeStyle;rounded=0;orthogonalLoop=1;jettySize=auto;html=1;fontColor=#333333;" edge="1" parent="WIyWlLk6GJQsqaUBKTNV-1" source="jbQOFpMAkAd9IMdo7Waa-4" target="jbQOFpMAkAd9IMdo7Waa-21">
          <mxGeometry relative="1" as="geometry" />
        </mxCell>
        <mxCell id="jbQOFpMAkAd9IMdo7Waa-4" value="New Game" style="whiteSpace=wrap;html=1;rounded=0;" vertex="1" parent="WIyWlLk6GJQsqaUBKTNV-1">
          <mxGeometry x="300" y="120" width="120" height="40" as="geometry" />
        </mxCell>
        <mxCell id="jbQOFpMAkAd9IMdo7Waa-29" value="" style="edgeStyle=orthogonalEdgeStyle;rounded=0;orthogonalLoop=1;jettySize=auto;html=1;fontColor=#333333;" edge="1" parent="WIyWlLk6GJQsqaUBKTNV-1" source="jbQOFpMAkAd9IMdo7Waa-8" target="jbQOFpMAkAd9IMdo7Waa-27">
          <mxGeometry relative="1" as="geometry" />
        </mxCell>
        <mxCell id="jbQOFpMAkAd9IMdo7Waa-8" value="List Saves" style="whiteSpace=wrap;html=1;rounded=0;" vertex="1" parent="WIyWlLk6GJQsqaUBKTNV-1">
          <mxGeometry x="20" y="120" width="120" height="40" as="geometry" />
        </mxCell>
        <mxCell id="jbQOFpMAkAd9IMdo7Waa-25" value="" style="edgeStyle=orthogonalEdgeStyle;rounded=0;orthogonalLoop=1;jettySize=auto;html=1;fontColor=#333333;" edge="1" parent="WIyWlLk6GJQsqaUBKTNV-1" source="jbQOFpMAkAd9IMdo7Waa-12" target="jbQOFpMAkAd9IMdo7Waa-24">
          <mxGeometry relative="1" as="geometry" />
        </mxCell>
        <mxCell id="jbQOFpMAkAd9IMdo7Waa-12" value="Load Save" style="whiteSpace=wrap;html=1;rounded=0;" vertex="1" parent="WIyWlLk6GJQsqaUBKTNV-1">
          <mxGeometry x="20" y="280" width="120" height="40" as="geometry" />
        </mxCell>
        <mxCell id="jbQOFpMAkAd9IMdo7Waa-21" value="Character Maker" style="ellipse;whiteSpace=wrap;html=1;rounded=1;fillColor=#647687;strokeColor=#314354;fontColor=#ffffff;" vertex="1" parent="WIyWlLk6GJQsqaUBKTNV-1">
          <mxGeometry x="320" y="200" width="80" height="80" as="geometry" />
        </mxCell>
        <mxCell id="jbQOFpMAkAd9IMdo7Waa-24" value="Game" style="ellipse;whiteSpace=wrap;html=1;rounded=1;fillColor=#d80073;strokeColor=#A50040;fontColor=#ffffff;" vertex="1" parent="WIyWlLk6GJQsqaUBKTNV-1">
          <mxGeometry x="40" y="360" width="80" height="80" as="geometry" />
        </mxCell>
        <mxCell id="jbQOFpMAkAd9IMdo7Waa-30" value="" style="edgeStyle=orthogonalEdgeStyle;rounded=0;orthogonalLoop=1;jettySize=auto;html=1;fontColor=#333333;" edge="1" parent="WIyWlLk6GJQsqaUBKTNV-1" source="jbQOFpMAkAd9IMdo7Waa-27" target="jbQOFpMAkAd9IMdo7Waa-12">
          <mxGeometry relative="1" as="geometry" />
        </mxCell>
        <mxCell id="jbQOFpMAkAd9IMdo7Waa-27" value="Select Save" style="shape=parallelogram;perimeter=parallelogramPerimeter;whiteSpace=wrap;html=1;fixedSize=1;size=10;" vertex="1" parent="WIyWlLk6GJQsqaUBKTNV-1">
          <mxGeometry x="20" y="200" width="120" height="40" as="geometry" />
        </mxCell>
        <mxCell id="jbQOFpMAkAd9IMdo7Waa-36" value="" style="edgeStyle=orthogonalEdgeStyle;rounded=0;orthogonalLoop=1;jettySize=auto;html=1;fontColor=#333333;entryX=0.5;entryY=0;entryDx=0;entryDy=0;" edge="1" parent="WIyWlLk6GJQsqaUBKTNV-1" source="jbQOFpMAkAd9IMdo7Waa-33" target="jbQOFpMAkAd9IMdo7Waa-4">
          <mxGeometry relative="1" as="geometry">
            <mxPoint x="400" y="80" as="targetPoint" />
          </mxGeometry>
        </mxCell>
        <mxCell id="jbQOFpMAkAd9IMdo7Waa-37" style="edgeStyle=orthogonalEdgeStyle;rounded=0;orthogonalLoop=1;jettySize=auto;html=1;exitX=0;exitY=0.5;exitDx=0;exitDy=0;entryX=0.5;entryY=0;entryDx=0;entryDy=0;fontColor=#333333;" edge="1" parent="WIyWlLk6GJQsqaUBKTNV-1" source="jbQOFpMAkAd9IMdo7Waa-33" target="jbQOFpMAkAd9IMdo7Waa-8">
          <mxGeometry relative="1" as="geometry" />
        </mxCell>
        <mxCell id="jbQOFpMAkAd9IMdo7Waa-84" value="" style="edgeStyle=orthogonalEdgeStyle;rounded=0;orthogonalLoop=1;jettySize=auto;html=1;fontColor=#333333;" edge="1" parent="WIyWlLk6GJQsqaUBKTNV-1" source="jbQOFpMAkAd9IMdo7Waa-33" target="jbQOFpMAkAd9IMdo7Waa-83">
          <mxGeometry relative="1" as="geometry" />
        </mxCell>
        <mxCell id="jbQOFpMAkAd9IMdo7Waa-33" value="Start" style="rounded=1;whiteSpace=wrap;html=1;arcSize=50;" vertex="1" parent="WIyWlLk6GJQsqaUBKTNV-1">
          <mxGeometry x="160" y="40" width="120" height="40" as="geometry" />
        </mxCell>
        <mxCell id="jbQOFpMAkAd9IMdo7Waa-51" value="" style="edgeStyle=orthogonalEdgeStyle;rounded=0;orthogonalLoop=1;jettySize=auto;html=1;fontColor=#333333;" edge="1" parent="WIyWlLk6GJQsqaUBKTNV-1" source="jbQOFpMAkAd9IMdo7Waa-41" target="jbQOFpMAkAd9IMdo7Waa-50">
          <mxGeometry relative="1" as="geometry" />
        </mxCell>
        <mxCell id="jbQOFpMAkAd9IMdo7Waa-53" value="" style="edgeStyle=orthogonalEdgeStyle;rounded=0;orthogonalLoop=1;jettySize=auto;html=1;fontColor=#333333;" edge="1" parent="WIyWlLk6GJQsqaUBKTNV-1" source="jbQOFpMAkAd9IMdo7Waa-41" target="jbQOFpMAkAd9IMdo7Waa-52">
          <mxGeometry relative="1" as="geometry" />
        </mxCell>
        <mxCell id="jbQOFpMAkAd9IMdo7Waa-61" value="" style="edgeStyle=orthogonalEdgeStyle;rounded=0;orthogonalLoop=1;jettySize=auto;html=1;fontColor=#333333;" edge="1" parent="WIyWlLk6GJQsqaUBKTNV-1" source="jbQOFpMAkAd9IMdo7Waa-41" target="jbQOFpMAkAd9IMdo7Waa-60">
          <mxGeometry relative="1" as="geometry" />
        </mxCell>
        <mxCell id="jbQOFpMAkAd9IMdo7Waa-41" value="Game" style="ellipse;whiteSpace=wrap;html=1;rounded=1;fillColor=#d80073;strokeColor=#A50040;fontColor=#ffffff;" vertex="1" parent="WIyWlLk6GJQsqaUBKTNV-1">
          <mxGeometry x="580" y="40" width="80" height="80" as="geometry" />
        </mxCell>
        <mxCell id="jbQOFpMAkAd9IMdo7Waa-57" value="" style="edgeStyle=orthogonalEdgeStyle;rounded=0;orthogonalLoop=1;jettySize=auto;html=1;fontColor=#333333;" edge="1" parent="WIyWlLk6GJQsqaUBKTNV-1" source="jbQOFpMAkAd9IMdo7Waa-50" target="jbQOFpMAkAd9IMdo7Waa-56">
          <mxGeometry relative="1" as="geometry" />
        </mxCell>
        <mxCell id="jbQOFpMAkAd9IMdo7Waa-50" value="Go forward" style="shape=parallelogram;perimeter=parallelogramPerimeter;whiteSpace=wrap;html=1;fixedSize=1;rounded=1;arcSize=0;size=10;fillColor=#d80073;fontColor=#ffffff;strokeColor=#A50040;" vertex="1" parent="WIyWlLk6GJQsqaUBKTNV-1">
          <mxGeometry x="540" y="160" width="160" height="40" as="geometry" />
        </mxCell>
        <mxCell id="jbQOFpMAkAd9IMdo7Waa-52" value="Shop" style="ellipse;whiteSpace=wrap;html=1;rounded=1;fillColor=#1ba1e2;strokeColor=#006EAF;fontColor=#ffffff;" vertex="1" parent="WIyWlLk6GJQsqaUBKTNV-1">
          <mxGeometry x="700" y="40" width="80" height="80" as="geometry" />
        </mxCell>
        <mxCell id="jbQOFpMAkAd9IMdo7Waa-64" value="" style="edgeStyle=orthogonalEdgeStyle;rounded=0;orthogonalLoop=1;jettySize=auto;html=1;fontColor=#333333;" edge="1" parent="WIyWlLk6GJQsqaUBKTNV-1" source="jbQOFpMAkAd9IMdo7Waa-56" target="jbQOFpMAkAd9IMdo7Waa-63">
          <mxGeometry relative="1" as="geometry" />
        </mxCell>
        <mxCell id="jbQOFpMAkAd9IMdo7Waa-56" value="Generate random prompt, fights or random drops" style="whiteSpace=wrap;html=1;rounded=1;arcSize=0;fillColor=#d80073;fontColor=#ffffff;strokeColor=#A50040;" vertex="1" parent="WIyWlLk6GJQsqaUBKTNV-1">
          <mxGeometry x="540" y="240" width="160" height="40" as="geometry" />
        </mxCell>
        <mxCell id="jbQOFpMAkAd9IMdo7Waa-60" value="Coins" style="ellipse;whiteSpace=wrap;html=1;rounded=1;fillColor=#008a00;strokeColor=#005700;fontColor=#ffffff;" vertex="1" parent="WIyWlLk6GJQsqaUBKTNV-1">
          <mxGeometry x="460" y="40" width="80" height="80" as="geometry" />
        </mxCell>
        <mxCell id="jbQOFpMAkAd9IMdo7Waa-66" value="" style="edgeStyle=orthogonalEdgeStyle;rounded=0;orthogonalLoop=1;jettySize=auto;html=1;fontColor=#333333;" edge="1" parent="WIyWlLk6GJQsqaUBKTNV-1" source="jbQOFpMAkAd9IMdo7Waa-63" target="jbQOFpMAkAd9IMdo7Waa-65">
          <mxGeometry relative="1" as="geometry" />
        </mxCell>
        <mxCell id="jbQOFpMAkAd9IMdo7Waa-67" value="yes" style="edgeLabel;html=1;align=center;verticalAlign=middle;resizable=0;points=[];fontColor=#333333;" vertex="1" connectable="0" parent="jbQOFpMAkAd9IMdo7Waa-66">
          <mxGeometry x="0.118" relative="1" as="geometry">
            <mxPoint x="-5" as="offset" />
          </mxGeometry>
        </mxCell>
        <mxCell id="jbQOFpMAkAd9IMdo7Waa-69" value="" style="edgeStyle=orthogonalEdgeStyle;rounded=0;orthogonalLoop=1;jettySize=auto;html=1;fontColor=#333333;" edge="1" parent="WIyWlLk6GJQsqaUBKTNV-1" source="jbQOFpMAkAd9IMdo7Waa-63" target="jbQOFpMAkAd9IMdo7Waa-68">
          <mxGeometry relative="1" as="geometry" />
        </mxCell>
        <mxCell id="jbQOFpMAkAd9IMdo7Waa-70" value="No" style="edgeLabel;html=1;align=center;verticalAlign=middle;resizable=0;points=[];fontColor=#333333;" vertex="1" connectable="0" parent="jbQOFpMAkAd9IMdo7Waa-69">
          <mxGeometry x="-0.2026" relative="1" as="geometry">
            <mxPoint as="offset" />
          </mxGeometry>
        </mxCell>
        <mxCell id="jbQOFpMAkAd9IMdo7Waa-63" value="Is fight?" style="rhombus;whiteSpace=wrap;html=1;rounded=1;arcSize=0;fillColor=#d80073;fontColor=#ffffff;strokeColor=#A50040;" vertex="1" parent="WIyWlLk6GJQsqaUBKTNV-1">
          <mxGeometry x="580" y="320" width="80" height="80" as="geometry" />
        </mxCell>
        <mxCell id="jbQOFpMAkAd9IMdo7Waa-65" value="Fight" style="ellipse;whiteSpace=wrap;html=1;rounded=1;arcSize=0;fillColor=#0050ef;strokeColor=#001DBC;fontColor=#ffffff;" vertex="1" parent="WIyWlLk6GJQsqaUBKTNV-1">
          <mxGeometry x="740" y="320" width="80" height="80" as="geometry" />
        </mxCell>
        <mxCell id="jbQOFpMAkAd9IMdo7Waa-68" value="Drop is randomized, and multiplied by how many points their character has on luck" style="whiteSpace=wrap;html=1;rounded=1;arcSize=0;fillColor=#d80073;fontColor=#ffffff;strokeColor=#A50040;" vertex="1" parent="WIyWlLk6GJQsqaUBKTNV-1">
          <mxGeometry x="500" y="440" width="240" height="40" as="geometry" />
        </mxCell>
        <mxCell id="jbQOFpMAkAd9IMdo7Waa-76" value="" style="edgeStyle=orthogonalEdgeStyle;rounded=0;orthogonalLoop=1;jettySize=auto;html=1;fontColor=#333333;" edge="1" parent="WIyWlLk6GJQsqaUBKTNV-1" source="jbQOFpMAkAd9IMdo7Waa-72" target="jbQOFpMAkAd9IMdo7Waa-75">
          <mxGeometry relative="1" as="geometry" />
        </mxCell>
        <mxCell id="jbQOFpMAkAd9IMdo7Waa-72" value="Fight" style="ellipse;whiteSpace=wrap;html=1;rounded=1;arcSize=0;fillColor=#0050ef;strokeColor=#001DBC;fontColor=#ffffff;" vertex="1" parent="WIyWlLk6GJQsqaUBKTNV-1">
          <mxGeometry x="900" y="40" width="80" height="80" as="geometry" />
        </mxCell>
        <mxCell id="jbQOFpMAkAd9IMdo7Waa-88" value="" style="edgeStyle=orthogonalEdgeStyle;rounded=0;orthogonalLoop=1;jettySize=auto;html=1;fontColor=#333333;" edge="1" parent="WIyWlLk6GJQsqaUBKTNV-1" source="jbQOFpMAkAd9IMdo7Waa-75" target="jbQOFpMAkAd9IMdo7Waa-87">
          <mxGeometry relative="1" as="geometry" />
        </mxCell>
        <mxCell id="jbQOFpMAkAd9IMdo7Waa-95" value="no" style="edgeLabel;html=1;align=center;verticalAlign=middle;resizable=0;points=[];fontColor=#333333;" vertex="1" connectable="0" parent="jbQOFpMAkAd9IMdo7Waa-88">
          <mxGeometry x="-0.0306" relative="1" as="geometry">
            <mxPoint y="1" as="offset" />
          </mxGeometry>
        </mxCell>
        <mxCell id="jbQOFpMAkAd9IMdo7Waa-101" value="" style="edgeStyle=orthogonalEdgeStyle;rounded=0;orthogonalLoop=1;jettySize=auto;html=1;fontColor=#333333;" edge="1" parent="WIyWlLk6GJQsqaUBKTNV-1" source="jbQOFpMAkAd9IMdo7Waa-75" target="jbQOFpMAkAd9IMdo7Waa-77">
          <mxGeometry relative="1" as="geometry" />
        </mxCell>
        <mxCell id="jbQOFpMAkAd9IMdo7Waa-75" value="Have 5 monsters been killed?" style="rhombus;whiteSpace=wrap;html=1;fillColor=#0050ef;strokeColor=#001DBC;fontColor=#ffffff;rounded=1;arcSize=0;" vertex="1" parent="WIyWlLk6GJQsqaUBKTNV-1">
          <mxGeometry x="900" y="160" width="80" height="80" as="geometry" />
        </mxCell>
        <mxCell id="jbQOFpMAkAd9IMdo7Waa-77" value="You Won" style="whiteSpace=wrap;html=1;fillColor=#0050ef;strokeColor=#001DBC;fontColor=#ffffff;rounded=1;arcSize=0;" vertex="1" parent="WIyWlLk6GJQsqaUBKTNV-1">
          <mxGeometry x="1020" y="180" width="80" height="40" as="geometry" />
        </mxCell>
        <mxCell id="jbQOFpMAkAd9IMdo7Waa-83" value="Exit program, save progress" style="rounded=1;whiteSpace=wrap;html=1;arcSize=0;" vertex="1" parent="WIyWlLk6GJQsqaUBKTNV-1">
          <mxGeometry x="160" y="120" width="120" height="40" as="geometry" />
        </mxCell>
        <mxCell id="jbQOFpMAkAd9IMdo7Waa-93" value="" style="edgeStyle=orthogonalEdgeStyle;rounded=0;orthogonalLoop=1;jettySize=auto;html=1;fontColor=#333333;" edge="1" parent="WIyWlLk6GJQsqaUBKTNV-1" source="jbQOFpMAkAd9IMdo7Waa-87" target="jbQOFpMAkAd9IMdo7Waa-92">
          <mxGeometry relative="1" as="geometry" />
        </mxCell>
        <mxCell id="jbQOFpMAkAd9IMdo7Waa-87" value="Strength of monster&lt;br&gt;=&lt;br&gt;1 * (prompts/10)" style="whiteSpace=wrap;html=1;fillColor=#0050ef;strokeColor=#001DBC;fontColor=#ffffff;rounded=1;arcSize=0;" vertex="1" parent="WIyWlLk6GJQsqaUBKTNV-1">
          <mxGeometry x="860" y="280" width="160" height="40" as="geometry" />
        </mxCell>
        <mxCell id="jbQOFpMAkAd9IMdo7Waa-92" value="Health of monster&lt;br&gt;=&lt;br&gt;1 * (prompts/10)" style="whiteSpace=wrap;html=1;fillColor=#0050ef;strokeColor=#001DBC;fontColor=#ffffff;rounded=1;arcSize=0;" vertex="1" parent="WIyWlLk6GJQsqaUBKTNV-1">
          <mxGeometry x="860" y="360" width="160" height="40" as="geometry" />
        </mxCell>
        <mxCell id="jbQOFpMAkAd9IMdo7Waa-98" value="" style="edgeStyle=orthogonalEdgeStyle;rounded=0;orthogonalLoop=1;jettySize=auto;html=1;fontColor=#333333;" edge="1" parent="WIyWlLk6GJQsqaUBKTNV-1" source="jbQOFpMAkAd9IMdo7Waa-96" target="jbQOFpMAkAd9IMdo7Waa-97">
          <mxGeometry relative="1" as="geometry" />
        </mxCell>
        <mxCell id="jbQOFpMAkAd9IMdo7Waa-96" value="Shop" style="ellipse;whiteSpace=wrap;html=1;rounded=1;fillColor=#1ba1e2;strokeColor=#006EAF;fontColor=#ffffff;" vertex="1" parent="WIyWlLk6GJQsqaUBKTNV-1">
          <mxGeometry x="1219.94" y="30" width="80" height="80" as="geometry" />
        </mxCell>
        <mxCell id="jbQOFpMAkAd9IMdo7Waa-112" value="" style="edgeStyle=orthogonalEdgeStyle;rounded=0;orthogonalLoop=1;jettySize=auto;html=1;fontColor=#333333;" edge="1" parent="WIyWlLk6GJQsqaUBKTNV-1" source="jbQOFpMAkAd9IMdo7Waa-97" target="jbQOFpMAkAd9IMdo7Waa-110">
          <mxGeometry relative="1" as="geometry" />
        </mxCell>
        <mxCell id="jbQOFpMAkAd9IMdo7Waa-113" value="" style="edgeStyle=orthogonalEdgeStyle;rounded=0;orthogonalLoop=1;jettySize=auto;html=1;fontColor=#333333;" edge="1" parent="WIyWlLk6GJQsqaUBKTNV-1" source="jbQOFpMAkAd9IMdo7Waa-97" target="jbQOFpMAkAd9IMdo7Waa-104">
          <mxGeometry relative="1" as="geometry" />
        </mxCell>
        <mxCell id="jbQOFpMAkAd9IMdo7Waa-97" value="Show shop items, health multiplier (armour) and strength (improve sword)" style="whiteSpace=wrap;html=1;fillColor=#1ba1e2;strokeColor=#006EAF;fontColor=#ffffff;rounded=1;arcSize=0;" vertex="1" parent="WIyWlLk6GJQsqaUBKTNV-1">
          <mxGeometry x="1159.94" y="150" width="200" height="80" as="geometry" />
        </mxCell>
        <mxCell id="jbQOFpMAkAd9IMdo7Waa-107" value="" style="edgeStyle=orthogonalEdgeStyle;rounded=0;orthogonalLoop=1;jettySize=auto;html=1;fontColor=#333333;" edge="1" parent="WIyWlLk6GJQsqaUBKTNV-1" source="jbQOFpMAkAd9IMdo7Waa-104" target="jbQOFpMAkAd9IMdo7Waa-106">
          <mxGeometry relative="1" as="geometry" />
        </mxCell>
        <mxCell id="jbQOFpMAkAd9IMdo7Waa-104" value="Upgrade Sword Level" style="shape=parallelogram;perimeter=parallelogramPerimeter;whiteSpace=wrap;html=1;fixedSize=1;fillColor=#1ba1e2;strokeColor=#006EAF;fontColor=#ffffff;rounded=1;arcSize=0;size=10;" vertex="1" parent="WIyWlLk6GJQsqaUBKTNV-1">
          <mxGeometry x="1399.94" y="170" width="160" height="40" as="geometry" />
        </mxCell>
        <mxCell id="jbQOFpMAkAd9IMdo7Waa-131" value="" style="edgeStyle=orthogonalEdgeStyle;rounded=0;orthogonalLoop=1;jettySize=auto;html=1;fontColor=#333333;" edge="1" parent="WIyWlLk6GJQsqaUBKTNV-1" source="jbQOFpMAkAd9IMdo7Waa-106" target="jbQOFpMAkAd9IMdo7Waa-130">
          <mxGeometry relative="1" as="geometry" />
        </mxCell>
        <mxCell id="jbQOFpMAkAd9IMdo7Waa-106" value="Price = 10 coins * sword level" style="whiteSpace=wrap;html=1;fillColor=#1ba1e2;strokeColor=#006EAF;fontColor=#ffffff;rounded=1;arcSize=0;" vertex="1" parent="WIyWlLk6GJQsqaUBKTNV-1">
          <mxGeometry x="1399.94" y="270" width="160" height="40" as="geometry" />
        </mxCell>
        <mxCell id="jbQOFpMAkAd9IMdo7Waa-109" value="" style="edgeStyle=orthogonalEdgeStyle;rounded=0;orthogonalLoop=1;jettySize=auto;html=1;fontColor=#333333;" edge="1" parent="WIyWlLk6GJQsqaUBKTNV-1" source="jbQOFpMAkAd9IMdo7Waa-110" target="jbQOFpMAkAd9IMdo7Waa-111">
          <mxGeometry relative="1" as="geometry" />
        </mxCell>
        <mxCell id="jbQOFpMAkAd9IMdo7Waa-110" value="Upgrade Armour Level" style="shape=parallelogram;perimeter=parallelogramPerimeter;whiteSpace=wrap;html=1;fixedSize=1;fillColor=#1ba1e2;strokeColor=#006EAF;fontColor=#ffffff;rounded=1;arcSize=0;size=10;" vertex="1" parent="WIyWlLk6GJQsqaUBKTNV-1">
          <mxGeometry x="1159.94" y="270" width="200" height="40" as="geometry" />
        </mxCell>
        <mxCell id="jbQOFpMAkAd9IMdo7Waa-123" value="" style="edgeStyle=orthogonalEdgeStyle;rounded=0;orthogonalLoop=1;jettySize=auto;html=1;fontColor=#333333;" edge="1" parent="WIyWlLk6GJQsqaUBKTNV-1" target="jbQOFpMAkAd9IMdo7Waa-122">
          <mxGeometry relative="1" as="geometry">
            <mxPoint x="1259.94" y="510" as="sourcePoint" />
          </mxGeometry>
        </mxCell>
        <mxCell id="jbQOFpMAkAd9IMdo7Waa-135" value="Yes" style="edgeLabel;html=1;align=center;verticalAlign=middle;resizable=0;points=[];fontColor=#333333;" vertex="1" connectable="0" parent="jbQOFpMAkAd9IMdo7Waa-123">
          <mxGeometry x="-0.269" y="-1" relative="1" as="geometry">
            <mxPoint as="offset" />
          </mxGeometry>
        </mxCell>
        <mxCell id="jbQOFpMAkAd9IMdo7Waa-126" value="" style="edgeStyle=orthogonalEdgeStyle;rounded=0;orthogonalLoop=1;jettySize=auto;html=1;fontColor=#333333;" edge="1" parent="WIyWlLk6GJQsqaUBKTNV-1" source="jbQOFpMAkAd9IMdo7Waa-111" target="jbQOFpMAkAd9IMdo7Waa-125">
          <mxGeometry relative="1" as="geometry" />
        </mxCell>
        <mxCell id="jbQOFpMAkAd9IMdo7Waa-111" value="Price = 10 coins * sword level" style="whiteSpace=wrap;html=1;fillColor=#1ba1e2;strokeColor=#006EAF;fontColor=#ffffff;rounded=1;arcSize=0;" vertex="1" parent="WIyWlLk6GJQsqaUBKTNV-1">
          <mxGeometry x="1159.94" y="350" width="200" height="40" as="geometry" />
        </mxCell>
        <mxCell id="jbQOFpMAkAd9IMdo7Waa-119" value="" style="edgeStyle=orthogonalEdgeStyle;rounded=0;orthogonalLoop=1;jettySize=auto;html=1;fontColor=#333333;" edge="1" parent="WIyWlLk6GJQsqaUBKTNV-1" source="jbQOFpMAkAd9IMdo7Waa-116" target="jbQOFpMAkAd9IMdo7Waa-118">
          <mxGeometry relative="1" as="geometry" />
        </mxCell>
        <mxCell id="jbQOFpMAkAd9IMdo7Waa-116" value="Deduct Price" style="whiteSpace=wrap;html=1;fillColor=#1ba1e2;strokeColor=#006EAF;fontColor=#ffffff;rounded=1;arcSize=0;" vertex="1" parent="WIyWlLk6GJQsqaUBKTNV-1">
          <mxGeometry x="1399.94" y="510" width="160" height="40" as="geometry" />
        </mxCell>
        <mxCell id="jbQOFpMAkAd9IMdo7Waa-118" value="Add 10% Strength Multiplier" style="whiteSpace=wrap;html=1;fillColor=#1ba1e2;strokeColor=#006EAF;fontColor=#ffffff;rounded=1;arcSize=0;" vertex="1" parent="WIyWlLk6GJQsqaUBKTNV-1">
          <mxGeometry x="1399.94" y="590" width="160" height="40" as="geometry" />
        </mxCell>
        <mxCell id="jbQOFpMAkAd9IMdo7Waa-120" value="Add 10% Health Multiplier" style="whiteSpace=wrap;html=1;fillColor=#1ba1e2;strokeColor=#006EAF;fontColor=#ffffff;rounded=1;arcSize=0;" vertex="1" parent="WIyWlLk6GJQsqaUBKTNV-1">
          <mxGeometry x="1159.94" y="630" width="200" height="40" as="geometry" />
        </mxCell>
        <mxCell id="jbQOFpMAkAd9IMdo7Waa-124" value="" style="edgeStyle=orthogonalEdgeStyle;rounded=0;orthogonalLoop=1;jettySize=auto;html=1;fontColor=#333333;" edge="1" parent="WIyWlLk6GJQsqaUBKTNV-1" source="jbQOFpMAkAd9IMdo7Waa-122" target="jbQOFpMAkAd9IMdo7Waa-120">
          <mxGeometry relative="1" as="geometry" />
        </mxCell>
        <mxCell id="jbQOFpMAkAd9IMdo7Waa-122" value="Deduct Price" style="whiteSpace=wrap;html=1;fillColor=#1ba1e2;strokeColor=#006EAF;fontColor=#ffffff;rounded=1;arcSize=0;" vertex="1" parent="WIyWlLk6GJQsqaUBKTNV-1">
          <mxGeometry x="1159.94" y="550" width="200" height="40" as="geometry" />
        </mxCell>
        <mxCell id="jbQOFpMAkAd9IMdo7Waa-129" value="" style="edgeStyle=orthogonalEdgeStyle;rounded=0;orthogonalLoop=1;jettySize=auto;html=1;fontColor=#333333;entryX=0.25;entryY=0;entryDx=0;entryDy=0;" edge="1" parent="WIyWlLk6GJQsqaUBKTNV-1" source="jbQOFpMAkAd9IMdo7Waa-125" target="jbQOFpMAkAd9IMdo7Waa-97">
          <mxGeometry relative="1" as="geometry">
            <mxPoint x="1160" y="190" as="targetPoint" />
            <Array as="points">
              <mxPoint x="1140" y="470" />
              <mxPoint x="1140" y="130" />
              <mxPoint x="1210" y="130" />
            </Array>
          </mxGeometry>
        </mxCell>
        <mxCell id="jbQOFpMAkAd9IMdo7Waa-134" value="No" style="edgeLabel;html=1;align=center;verticalAlign=middle;resizable=0;points=[];fontColor=#333333;" vertex="1" connectable="0" parent="jbQOFpMAkAd9IMdo7Waa-129">
          <mxGeometry x="-0.8013" relative="1" as="geometry">
            <mxPoint as="offset" />
          </mxGeometry>
        </mxCell>
        <mxCell id="jbQOFpMAkAd9IMdo7Waa-125" value="User has enough coins" style="rhombus;whiteSpace=wrap;html=1;fillColor=#1ba1e2;strokeColor=#006EAF;fontColor=#ffffff;rounded=1;arcSize=0;" vertex="1" parent="WIyWlLk6GJQsqaUBKTNV-1">
          <mxGeometry x="1219.94" y="430" width="80" height="80" as="geometry" />
        </mxCell>
        <mxCell id="jbQOFpMAkAd9IMdo7Waa-132" value="" style="edgeStyle=orthogonalEdgeStyle;rounded=0;orthogonalLoop=1;jettySize=auto;html=1;fontColor=#333333;" edge="1" parent="WIyWlLk6GJQsqaUBKTNV-1" source="jbQOFpMAkAd9IMdo7Waa-130" target="jbQOFpMAkAd9IMdo7Waa-116">
          <mxGeometry relative="1" as="geometry" />
        </mxCell>
        <mxCell id="jbQOFpMAkAd9IMdo7Waa-137" value="Yes" style="edgeLabel;html=1;align=center;verticalAlign=middle;resizable=0;points=[];fontColor=#333333;" vertex="1" connectable="0" parent="jbQOFpMAkAd9IMdo7Waa-132">
          <mxGeometry x="0.2552" y="-2" relative="1" as="geometry">
            <mxPoint x="2" y="-8" as="offset" />
          </mxGeometry>
        </mxCell>
        <mxCell id="jbQOFpMAkAd9IMdo7Waa-133" style="edgeStyle=orthogonalEdgeStyle;rounded=0;orthogonalLoop=1;jettySize=auto;html=1;exitX=1;exitY=0.5;exitDx=0;exitDy=0;fontColor=#333333;" edge="1" parent="WIyWlLk6GJQsqaUBKTNV-1" source="jbQOFpMAkAd9IMdo7Waa-130">
          <mxGeometry relative="1" as="geometry">
            <mxPoint x="1310" y="150" as="targetPoint" />
            <Array as="points">
              <mxPoint x="1580" y="410" />
              <mxPoint x="1580" y="130" />
              <mxPoint x="1310" y="130" />
              <mxPoint x="1310" y="150" />
            </Array>
          </mxGeometry>
        </mxCell>
        <mxCell id="jbQOFpMAkAd9IMdo7Waa-136" value="No" style="edgeLabel;html=1;align=center;verticalAlign=middle;resizable=0;points=[];fontColor=#333333;" vertex="1" connectable="0" parent="jbQOFpMAkAd9IMdo7Waa-133">
          <mxGeometry x="-0.9431" relative="1" as="geometry">
            <mxPoint as="offset" />
          </mxGeometry>
        </mxCell>
        <mxCell id="jbQOFpMAkAd9IMdo7Waa-130" value="User has enough coins" style="rhombus;whiteSpace=wrap;html=1;fillColor=#1ba1e2;strokeColor=#006EAF;fontColor=#ffffff;rounded=1;arcSize=0;" vertex="1" parent="WIyWlLk6GJQsqaUBKTNV-1">
          <mxGeometry x="1439.94" y="370" width="80" height="80" as="geometry" />
        </mxCell>
      </root>
    </mxGraphModel>
  </diagram>
</mxfile>
